<?xml version="1.0" encoding="utf-8"?>
<svg viewBox="37.796 22.641 433.486 466.023" xmlns="http://www.w3.org/2000/svg">
  <path d="M 428.256 96.457 C 416.176 16.217 336.556 29.487 336.556 29.487 C 223.886 50.467 230.466 190.747 160.966 271.257 C 142.511 292.841 122.497 313.042 101.086 331.697 L 313.016 467.817 L 395.086 488.307 C 401.115 489.796 407.298 486.502 409.426 480.667 C 451.766 365.647 384.326 266.287 388.496 198.067 C 389.916 174.887 397.776 157.967 403.196 149.357 L 425.366 99.977 C 426.208 99.934 426.996 99.547 427.546 98.907 C 428.132 98.235 428.392 97.338 428.256 96.457 L 428.256 96.457 Z" style="fill: rgb(44, 183, 246);"/>
  <path d="M 465.276 149.967 L 396.296 116.497 C 405.586 109.757 416.346 100.517 425.366 99.977 C 426.208 99.934 426.996 99.547 427.546 98.907 L 427.556 98.917 C 453.476 118.027 465.276 149.967 465.276 149.967 Z" style="fill: rgb(255, 255, 255);"/>
  <path d="M 396.296 116.497 L 465.276 149.967 C 453.096 155.167 403.196 149.357 403.196 149.357 L 396.296 116.497 Z" style="fill: rgb(255, 255, 255);"/>
  <path d="M 354.736 76.897 C 364.712 76.889 370.956 87.684 365.974 96.328 C 360.993 104.972 348.522 104.982 343.527 96.346 C 342.386 94.373 341.786 92.135 341.786 89.857 C 341.784 82.703 347.581 76.901 354.736 76.897 L 354.736 76.897 Z" style="fill: rgb(255, 255, 255);"/>
  <path d="M 180.966 291.257 C 250.466 210.747 243.886 70.467 356.556 49.487 C 356.556 49.487 389.074 44.071 415.7 61.102 C 389.649 20.648 336.556 29.487 336.556 29.487 C 223.886 50.467 230.466 190.747 160.966 271.257 C 142.511 292.841 122.497 313.042 101.086 331.697 L 125.799 347.567 C 145.424 330.049 163.854 311.237 180.966 291.257 L 180.966 291.257 Z" style="fill: rgb(36, 155, 211);"/>
  <path d="M 280.216 303.777 C 344.496 332.647 341.006 428.557 313.016 467.817 L 50.436 402.237 C 43.744 400.568 38.771 394.951 37.926 388.107 C 37.838 387.42 37.794 386.729 37.796 386.037 C 37.794 380.131 40.922 374.666 46.016 371.677 C 61.146 362.847 79.796 350.067 101.076 331.707 L 101.086 331.697 C 146.236 304.367 217.126 275.447 280.216 303.777 L 280.216 303.777 Z" style="fill: rgb(5, 90, 157);"/>
  <path d="M 66.016 391.677 C 81.146 382.847 99.796 370.067 121.076 351.707 L 121.086 351.697 C 139.776 335.444 157.382 317.984 173.792 299.431 C 146.426 307.031 121.201 319.521 101.086 331.697 L 101.076 331.707 C 79.796 350.067 61.146 362.847 46.016 371.677 C 40.922 374.666 37.794 380.131 37.796 386.037 C 37.794 386.729 37.838 387.42 37.926 388.107 C 38.771 394.951 43.744 400.568 50.436 402.237 L 57.915 404.105 C 58.515 398.921 61.515 394.319 66.016 391.677 L 66.016 391.677 Z" style="fill: rgb(4, 75, 129);"/>
  <g fill="#23303f" transform="matrix(1, 0, 0, 1, -4.46438, 2.666921)">
    <path d="m58.778 371.041a390.267 390.267 0 0 0 50.072-36.987c37.428-22.633 109.525-56.14 173.374-27.466 27.414 12.311 39.078 36.69 44.034 54.974 10.325 38.083.669 80-13.659 100.1a6 6 0 1 0 9.772 6.965c19.035-26.708 25.541-73.057 15.469-110.206-8.08-29.805-25.612-51.514-50.7-62.781-50.488-22.672-104.936-9.78-145.941 8.113q13.884-14.09 28.768-31.239c26.7-30.923 42.294-70.07 57.379-107.928 24.447-61.356 47.536-119.309 114.692-131.854 1.386-.212 33.642-4.873 57.948 12.837 13.818 10.067 22.663 25.592 26.322 46.178-8.329 1.708-16.608 7.915-24.644 13.94-1.5 1.127-2.981 2.235-4.425 3.283a6 6 0 0 0 -2.346 6.088l6.407 30.542c-4.609 7.9-12.842 25.138-14.329 49.434-1.549 25.315 6.045 53.493 14.836 86.121 15.482 57.453 33.03 122.572 6.452 194.769a6 6 0 1 0 11.261 4.146c27.9-75.779 9.032-145.786-6.125-202.037-8.519-31.611-15.875-58.912-14.446-82.266 1.254-20.5 7.754-35.217 11.9-42.692 13.579 1.452 49.106 4.648 60.974-.154l.1-.037c.054-.023.116-.042.17-.065l-.007-.016a5.938 5.938 0 0 0 3.278-7.581c-.486-1.318-11.782-31.3-36.622-51.343a8.913 8.913 0 0 0 -.091-.988c-3.823-25.386-14.486-44.594-31.7-57.091-28.855-20.954-65.39-15.159-66.928-14.9l-.112.02c-33.245 6.19-59.554 23.055-80.429 51.555-18.334 25.032-30.457 55.457-43.291 87.668-14.719 36.937-29.937 75.132-55.315 104.528-44.393 51.42-82.7 80.412-108.4 96.154a6 6 0 0 0 6.3 10.214zm353.863-229.841-3.492-16.634 38.879 18.87c-10.968-.131-24.368-1.081-35.387-2.236zm18.533-38.011c11.706 9.441 20.187 21.655 25.606 31.156l-44.5-21.6c6.344-4.677 13-9.152 17.906-9.441a9.063 9.063 0 0 0 .988-.116z"/>
    <path d="m359.2 106.15a18.96 18.96 0 1 0 -18.955-18.96 18.979 18.979 0 0 0 18.955 18.96zm0-25.92a6.96 6.96 0 1 1 -6.955 6.96 6.965 6.965 0 0 1 6.955-6.96z"/>
    <path d="m317.218 53.344c-14.7 7.238-27.247 18.135-38.366 33.315-16.53 22.569-28.1 51.616-40.358 82.369a6 6 0 1 0 11.148 4.442c11.962-30.024 23.262-58.383 38.892-79.721 9.947-13.581 21.064-23.276 33.985-29.639a6 6 0 0 0 -5.3-10.766z"/>
    <path d="m351.309 49.316a6 6 0 0 0 -7-4.8c-2.07.385-4.135.827-6.139 1.312a6 6 0 1 0 2.83 11.663c1.8-.435 3.652-.831 5.513-1.178a6 6 0 0 0 4.796-6.997z"/>
  </g>
</svg>